<svg width="24" height="24" viewBox="0 0 24 24" fill="none" xmlns="http://www.w3.org/2000/svg">
<path d="M22.8026 6.39634L20.5526 4.18759C20.2714 3.90736 19.8906 3.75 19.4937 3.75C19.0967 3.75 18.7159 3.90736 18.4348 4.18759L9.74509 12.7704L6.3054 9.4329C6.02366 9.15358 5.64273 8.99724 5.24599 8.99812C4.84926 8.999 4.46903 9.15702 4.18852 9.43759L1.93852 11.6876C1.65772 11.9688 1.5 12.35 1.5 12.7474C1.5 13.1449 1.65772 13.526 1.93852 13.8073L8.6529 20.5573C8.79219 20.6966 8.95757 20.8071 9.13958 20.8825C9.32159 20.9579 9.51667 20.9967 9.71368 20.9967C9.91069 20.9967 10.1058 20.9579 10.2878 20.8825C10.4698 20.8071 10.6352 20.6966 10.7745 20.5573L22.8073 8.52165C22.9469 8.38198 23.0575 8.21613 23.1328 8.0336C23.2082 7.85108 23.2467 7.65548 23.2463 7.45802C23.2458 7.26056 23.2064 7.06513 23.1303 6.88294C23.0541 6.70075 22.9428 6.53539 22.8026 6.39634ZM9.70946 19.4988L2.99509 12.7488L5.24509 10.4988C5.24782 10.5011 5.25033 10.5036 5.25259 10.5063L9.2229 14.3585C9.36305 14.4957 9.55134 14.5725 9.74743 14.5725C9.94352 14.5725 10.1318 14.4957 10.272 14.3585L19.5007 5.24884L21.7451 7.46134L9.70946 19.4988Z" fill="white"/>
<path d="M9.71438 19.5L3 12.75L5.25 10.5C5.25273 10.5023 5.25524 10.5048 5.2575 10.5075L9.22781 14.3597C9.36797 14.4968 9.55626 14.5736 9.75234 14.5736C9.94843 14.5736 10.1367 14.4968 10.2769 14.3597L19.5056 5.25L21.75 7.4625L9.71438 19.5Z" fill="#449C76"/>
</svg>
