<svg xmlns="http://www.w3.org/2000/svg" width="8" height="8" viewBox="0 0 8 8" fill="none">
<g clip-path="url(#clip0_3058_3699)">
<path d="M2.02682 3.16668L0.860149 3.70001C0.802884 3.72693 0.754463 3.76959 0.720547 3.82301C0.68663 3.87643 0.66862 3.9384 0.66862 4.00168C0.66862 4.06495 0.68663 4.12692 0.720547 4.18034C0.754463 4.23376 0.802884 4.27642 0.860149 4.30334L3.72682 5.60668C3.81322 5.6458 3.90697 5.66604 4.00182 5.66604C4.09666 5.66604 4.19042 5.6458 4.27682 5.60668L7.13682 4.30668C7.19597 4.2806 7.24626 4.23788 7.28156 4.18372C7.31687 4.12957 7.33566 4.06632 7.33566 4.00168C7.33566 3.93703 7.31687 3.87378 7.28156 3.81963C7.24626 3.76548 7.19597 3.72276 7.13682 3.69668L5.97015 3.16668M2.02682 4.83334L0.860149 5.36668C0.802884 5.3936 0.754463 5.43626 0.720547 5.48968C0.68663 5.5431 0.66862 5.60507 0.66862 5.66834C0.66862 5.73162 0.68663 5.79359 0.720547 5.84701C0.754463 5.90043 0.802884 5.94309 0.860149 5.97001L3.72682 7.27334C3.81322 7.31247 3.90697 7.3327 4.00182 7.3327C4.09666 7.3327 4.19042 7.31247 4.27682 7.27334L7.13682 5.97334C7.19597 5.94726 7.24626 5.90454 7.28156 5.85039C7.31687 5.79624 7.33566 5.73299 7.33566 5.66834C7.33566 5.6037 7.31687 5.54045 7.28156 5.4863C7.24626 5.43214 7.19597 5.38942 7.13682 5.36334L5.97015 4.83334M4.27682 0.726715C4.18996 0.687097 4.09561 0.666595 4.00015 0.666595C3.90469 0.666595 3.81034 0.687097 3.72348 0.726715L0.866817 2.02671C0.807667 2.0528 0.757377 2.09551 0.722072 2.14967C0.686766 2.20382 0.667969 2.26707 0.667969 2.33171C0.667969 2.39636 0.686766 2.45961 0.722072 2.51376C0.757377 2.56791 0.807667 2.61063 0.866817 2.63671L3.72682 3.94005C3.81367 3.97966 3.90802 4.00017 4.00348 4.00017C4.09895 4.00017 4.1933 3.97966 4.28015 3.94005L7.14015 2.64005C7.1993 2.61397 7.24959 2.57125 7.2849 2.5171C7.3202 2.46294 7.339 2.39969 7.339 2.33505C7.339 2.2704 7.3202 2.20715 7.2849 2.153C7.24959 2.09885 7.1993 2.05613 7.14015 2.03005L4.27682 0.726715Z" stroke="white" stroke-width="0.6" stroke-linecap="round" stroke-linejoin="round"/>
</g>
<defs>
<clipPath id="clip0_3058_3699">
<rect width="8" height="8" fill="white"/>
</clipPath>
</defs>
</svg>