<svg width="100%" height="100%" viewBox="0 0 1305 763" fill="none" xmlns="http://www.w3.org/2000/svg" preserveAspectRatio="xMinYMid slice">
<g clip-path="url(#clip0_3077_40841)">
<g clip-path="url(#clip1_3077_40841)">
<path d="M916.979 442.668V763.128H573.638V488.448C573.638 429.453 525.815 381.628 466.821 381.628H855.941C889.649 381.628 916.979 408.959 916.979 442.668Z" fill="#40B5FF"/>
<path d="M0 473.188H281.738C340.686 473.188 388.555 521.059 388.555 580.008V763.128H0V473.188Z" fill="#C8ECD9"/>
<path d="M863.57 381.628H466.821C407.827 381.628 360.004 333.803 360.004 274.808V0.12793H649.936C708.93 0.12793 756.753 47.9528 756.753 106.948V274.808C756.753 333.803 804.577 381.628 863.57 381.628Z" fill="#449C76"/>
</g>
<path d="M1358.38 276.53L1076.77 276.53C1017.85 276.53 969.999 230.874 969.999 174.651L969.999 2.68993e-05L1358.38 -5.48363e-06L1358.38 276.53Z" fill="#C8ECD9"/>
<path d="M1086 828.218L1086 559.632C1086 503.436 1133.87 457.801 1192.82 457.801L1375.94 457.801L1375.94 828.218L1086 828.218Z" fill="#40B5FF"/>
</g>
<defs>
<clipPath id="clip0_3077_40841">
<rect width="1305" height="763" fill="white"/>
</clipPath>
<clipPath id="clip1_3077_40841">
<rect width="919.415" height="763" fill="white" transform="translate(0 0.12793)"/>
</clipPath>
</defs>
</svg>
