<svg width="241" height="200" viewBox="0 0 241 200" fill="none" xmlns="http://www.w3.org/2000/svg">
<g clip-path="url(#clip0_1392_3210)">
<path d="M16.0356 0H172.031V200H0.0359955V16C0.0359955 7.168 7.2038 0 16.0356 0Z" fill="#0C4C38"/>
<path d="M240.362 116V200H150.364V128C150.364 112.536 137.828 100 122.365 100H224.362C233.198 100 240.362 107.164 240.362 116Z" fill="#40B5FF"/>
<path d="M0 124H73.85C89.3016 124 101.849 136.548 101.849 152V200H0V124Z" fill="#C8ECD9"/>
<path d="M226.362 100H122.365C106.901 100 94.3654 87.464 94.3654 72V0H170.363C185.827 0 198.363 12.536 198.363 28V72C198.363 87.464 210.898 100 226.362 100Z" fill="#449C76"/>
</g>
<defs>
<clipPath id="clip0_1392_3210">
<rect width="241" height="200" fill="white"/>
</clipPath>
</defs>
</svg>
