<svg width="890" height="200" viewBox="0 0 890 200" fill="none" xmlns="http://www.w3.org/2000/svg">
<g clip-path="url(#clip0_1392_3184)">
<path d="M16.0356 0H172.031V200H0.0359955V16C0.0359955 7.168 7.2038 0 16.0356 0Z" fill="#0C4C38"/>
<path d="M240.362 116V200H150.364V128C150.364 112.536 137.828 100 122.365 100H224.362C233.198 100 240.362 107.164 240.362 116Z" fill="#40B5FF"/>
<path d="M0 124H73.85C89.3016 124 101.849 136.548 101.849 152V200H0V124Z" fill="#C8ECD9"/>
<path d="M226.362 100H122.365C106.901 100 94.3654 87.464 94.3654 72V0H170.363C185.827 0 198.363 12.536 198.363 28V72C198.363 87.464 210.898 100 226.362 100Z" fill="#449C76"/>
<path d="M298 80.42C285.644 80.42 275.385 76.528 267.225 68.74L275.873 58.296C282.388 64.212 289.648 67.168 297.66 67.168C302.224 67.168 305.728 66.232 308.16 64.36C310.592 62.488 311.812 60.092 311.812 57.172C311.812 55.676 311.42 54.348 310.632 53.184C309.844 52.024 308.984 51.088 308.048 50.376C307.112 49.664 305.576 48.936 303.444 48.184C301.308 47.436 299.68 46.932 298.56 46.668C297.436 46.408 295.488 45.936 292.72 45.264C285.456 43.316 279.84 40.604 275.873 37.12C271.901 33.64 269.921 29.016 269.921 23.248C269.921 16.136 272.465 10.484 277.556 6.288C282.648 2.096 289.5 0 298.112 0C308.444 0 317.391 3.184 324.955 9.548L315.971 20.22C313.724 18.124 310.992 16.42 307.772 15.108C304.552 13.8 301.372 13.144 298.224 13.144C294.556 13.144 291.56 13.988 289.24 15.672C286.916 17.356 285.756 19.772 285.756 22.916C285.756 25.236 286.88 27.112 289.124 28.532C291.368 29.956 295.152 31.38 300.468 32.8C304.136 33.848 307.112 34.764 309.396 35.552C311.68 36.34 314.112 37.404 316.695 38.752C319.279 40.1 321.279 41.524 322.703 43.02C324.123 44.52 325.303 46.408 326.243 48.692C327.179 50.976 327.647 53.576 327.647 56.5C327.647 63.84 325.043 69.66 319.843 73.964C314.64 78.272 307.356 80.424 298 80.424V80.42Z" fill="#0C4C38"/>
<path d="M400.877 20.8921C406.641 20.8921 411.173 22.6521 414.469 26.1721C417.765 29.6921 419.413 34.6361 419.413 40.9961V79.5201H403.577V44.1401C403.577 41.0721 402.789 38.6361 401.217 36.8401C399.645 35.0441 397.549 34.1441 394.929 34.1441C392.309 34.1441 390.173 35.0601 388.529 36.8961C386.882 38.7321 386.058 41.1081 386.058 44.0281V79.5201H370.334V44.1401C370.334 41.1481 369.51 38.7321 367.862 36.8961C366.214 35.0641 364.082 34.1441 361.462 34.1441C359.066 34.1441 357.062 34.8761 355.454 36.3361C353.842 37.7961 352.89 39.7601 352.59 42.2321V79.5201H336.755V21.7881H352.59V28.6401C355.658 23.4721 360.638 20.8921 367.526 20.8921C375.762 20.8921 381.302 24.1481 384.15 30.6641C387.37 24.1481 392.945 20.8921 400.885 20.8921H400.877Z" fill="#0C4C38"/>
<path d="M479.719 79.5199H463.883V73.2319C460.588 78.0239 454.972 80.4199 447.036 80.4199C441.568 80.4199 437.096 78.9999 433.612 76.1519C430.132 73.3079 428.388 69.1159 428.388 63.5719C428.388 58.0279 430.408 53.2399 434.452 49.8679C438.496 46.4999 444.26 44.8119 451.748 44.8119H463.767C463.767 42.2679 462.907 40.0199 461.184 38.0719C459.46 36.1239 456.764 35.1519 453.096 35.1519C448.38 35.1519 444.072 36.7639 440.18 39.9799L431.42 30.2079C437.408 24.2919 445.124 21.3359 454.556 21.3359C461.892 21.3359 467.903 23.3199 472.583 27.2879C477.263 31.2559 479.603 37.0239 479.603 44.5839L479.715 79.5159L479.719 79.5199ZM463.771 59.4159V54.8119H455.124C451.756 54.8119 449.116 55.4479 447.204 56.7199C445.296 57.9959 444.34 59.7919 444.34 62.1119C444.34 64.1319 445.072 65.7239 446.532 66.8839C447.992 68.0439 449.884 68.6239 452.204 68.6239C455.424 68.6239 458.156 67.7639 460.404 66.0399C462.648 64.3199 463.771 62.1079 463.771 59.4119V59.4159Z" fill="#0C4C38"/>
<path d="M520.602 21.004C523.522 21.004 525.918 21.716 527.79 23.14L525.094 37.852C523.97 37.028 522.022 36.616 519.254 36.616C518.354 36.616 517.682 36.656 517.234 36.728C514.538 37.028 512.254 38.132 510.382 40.04C508.51 41.948 507.574 44.364 507.574 47.284V79.52H491.739V21.788H507.574V29.2C510.418 23.736 514.762 21 520.602 21V21.004Z" fill="#0C4C38"/>
<path d="M567.325 34.4801H554.633V58.4041C554.633 63.5721 557.217 66.2681 562.381 66.4921C562.605 66.4921 562.925 66.5121 563.337 66.5481C563.749 66.5881 564.069 66.6041 564.293 66.6041C564.517 66.6041 564.873 66.5881 565.361 66.5481C565.845 66.5121 566.201 66.4921 566.429 66.4921V79.5201C562.537 79.7441 559.765 79.8561 558.117 79.8561C554.821 79.8561 551.977 79.5001 549.581 78.7881C547.185 78.0761 545.349 77.1801 544.077 76.0921C542.805 75.0081 541.813 73.6401 541.101 71.9921C540.389 70.3441 539.941 68.8481 539.753 67.5001C539.565 66.1521 539.473 64.5441 539.473 62.6721V34.4801H531.05V21.7881H539.473V6.51611H554.637V21.7921H567.329V34.4841L567.325 34.4801Z" fill="#0C4C38"/>
<path d="M672.334 0.899902H688.393L669.302 79.5199H653.578L641.447 28.1919L630.215 79.5199H615.279L594.616 0.899902H611.352L622.583 49.1959L633.479 0.899902H649.539L661.554 49.4199L672.338 0.899902H672.334Z" fill="#0C4C38"/>
<path d="M739.388 79.5199H723.552V73.2319C720.257 78.0239 714.641 80.4199 706.705 80.4199C701.237 80.4199 696.765 78.9999 693.281 76.1519C689.801 73.3079 688.057 69.1159 688.057 63.5719C688.057 58.0279 690.077 53.2399 694.121 49.8679C698.165 46.4999 703.929 44.8119 711.417 44.8119H723.436C723.436 42.2679 722.576 40.0199 720.853 38.0719C719.129 36.1239 716.433 35.1519 712.765 35.1519C708.049 35.1519 703.741 36.7639 699.849 39.9799L691.089 30.2079C697.077 24.2919 704.793 21.3359 714.225 21.3359C721.56 21.3359 727.572 23.3199 732.252 27.2879C736.932 31.2559 739.272 37.0239 739.272 44.5839L739.384 79.5159L739.388 79.5199ZM723.44 59.4159V54.8119H714.793C711.425 54.8119 708.785 55.4479 706.873 56.7199C704.965 57.9959 704.009 59.7919 704.009 62.1119C704.009 64.1319 704.741 65.7239 706.201 66.8839C707.661 68.0439 709.553 68.6239 711.873 68.6239C715.093 68.6239 717.825 67.7639 720.073 66.0399C722.316 64.3199 723.44 62.1079 723.44 59.4119V59.4159Z" fill="#0C4C38"/>
<path d="M782.967 34.4801H770.275V58.4041C770.275 63.5721 772.859 66.2681 778.023 66.4921C778.247 66.4921 778.567 66.5121 778.979 66.5481C779.391 66.5881 779.711 66.6041 779.935 66.6041C780.159 66.6041 780.515 66.5881 781.003 66.5481C781.487 66.5121 781.843 66.4921 782.071 66.4921V79.5201C778.179 79.7441 775.407 79.8561 773.759 79.8561C770.463 79.8561 767.619 79.5001 765.223 78.7881C762.827 78.0761 760.991 77.1801 759.719 76.0921C758.447 75.0081 757.456 73.6401 756.744 71.9921C756.032 70.3441 755.584 68.8481 755.396 67.5001C755.208 66.1521 755.116 64.5441 755.116 62.6721V34.4801H746.692V21.7881H755.116V6.51611H770.279V21.7921H782.971V34.4841L782.967 34.4801Z" fill="#0C4C38"/>
<path d="M818.906 66.94C824.894 66.792 829.35 64.804 832.27 60.988L841.593 70.084C839.345 73.228 836.165 75.684 832.046 77.44C827.926 79.2 823.322 80.08 818.23 80.08C809.022 80.08 801.718 76.972 796.331 70.756C791.839 65.664 789.591 59.04 789.591 50.876C789.591 44.96 790.827 39.532 793.299 34.592C795.547 30.4 798.706 27.088 802.79 24.652C806.87 22.22 811.458 21 816.55 21C823.138 21 828.606 22.74 832.949 26.224C837.289 29.704 840.325 34.592 842.045 40.88C843.241 44.776 843.841 49.716 843.841 55.704H805.43C805.878 58.252 806.778 60.348 808.126 61.992C810.374 65.288 813.966 66.932 818.91 66.932L818.906 66.94ZM816.434 34.368C812.014 34.368 808.946 36.24 807.226 39.984C806.25 41.78 805.614 43.764 805.318 45.936H827.782C827.482 43.988 826.958 42.228 826.21 40.656C824.338 36.612 821.078 34.516 816.438 34.368H816.434Z" fill="#0C4C38"/>
<path d="M882.812 21.004C885.732 21.004 888.128 21.716 890 23.14L887.304 37.852C886.18 37.028 884.232 36.616 881.464 36.616C880.564 36.616 879.892 36.656 879.444 36.728C876.748 37.028 874.464 38.132 872.592 40.04C870.721 41.948 869.785 44.364 869.785 47.284V79.52H853.949V21.788H869.785V29.2C872.628 23.736 876.972 21 882.812 21V21.004Z" fill="#0C4C38"/>
<path d="M354.598 158.104C358.79 159.9 362.046 162.448 364.37 165.74C366.69 169.036 367.85 172.816 367.85 177.084C367.85 183.972 365.474 189.364 360.718 193.256C355.962 197.152 349.279 199.096 340.671 199.096H309.224V120.476H338.427C346.739 120.476 353.326 122.348 358.194 126.092C363.062 129.836 365.494 134.852 365.494 141.144C365.494 149.156 361.862 154.808 354.598 158.104ZM325.059 133.732V153.164H337.751C341.419 153.164 344.323 152.304 346.455 150.58C348.591 148.86 349.655 146.5 349.655 143.504C349.655 140.508 348.607 138.132 346.511 136.372C344.415 134.612 341.607 133.732 338.087 133.732H325.059ZM340.447 185.848C343.967 185.848 346.775 184.932 348.871 183.096C350.967 181.264 352.014 178.772 352.014 175.628C352.014 172.26 350.967 169.656 348.871 167.824C346.775 165.992 343.891 165.072 340.223 165.072H325.059V185.852H340.447V185.848Z" fill="#0C4C38"/>
<path d="M407.497 157.992H437.484C437.408 165.78 436.94 172.144 436.08 177.084C435.22 182.024 433.704 186.068 431.532 189.216C426.664 196.404 418.577 200 407.273 200C397.165 200 389.525 196.82 384.362 190.452C378.818 183.64 376.05 173.456 376.05 159.9C376.05 146.344 378.818 136.016 384.362 129.348C389.529 122.832 397.089 119.576 407.049 119.576C417.009 119.576 424.421 122.72 429.288 129.012C432.956 132.756 435.5 138.036 436.924 144.848L421.649 147.656C421.125 143.764 420.189 140.804 418.841 138.784C416.745 134.74 412.813 132.72 407.049 132.72C401.805 132.72 398.025 134.628 395.705 138.448C393.085 142.492 391.773 149.644 391.773 159.9C391.773 170.156 393.045 177.012 395.593 180.904C397.989 184.8 402.033 186.744 407.725 186.744C413.417 186.744 417.569 184.648 419.741 180.456C421.089 177.76 421.877 174.092 422.101 169.448H407.501V157.992H407.497Z" fill="#0C4C38"/>
<path d="M449.164 199.1V120.48H464.999V199.1H449.164Z" fill="#0C4C38"/>
<path d="M535.082 120.368C542.569 120.368 548.577 122.616 553.109 127.108C557.637 131.6 559.905 137.516 559.905 144.852C559.905 152.188 557.565 157.808 552.885 162.148C548.205 166.492 542.045 168.7 534.41 168.776L517.898 168.888V199.1H502.062V120.368H535.082ZM532.726 156.308C536.17 156.308 538.937 155.296 541.037 153.276C543.133 151.256 544.181 148.52 544.181 145.076C544.181 141.632 543.133 138.636 541.037 136.54C538.941 134.444 536.17 133.396 532.726 133.396H517.898V156.308H532.726Z" fill="#0C4C38"/>
<path d="M569.001 199.1V120.48H584.836V199.1H569.001Z" fill="#0C4C38"/>
<path d="M645.599 199.1H629.763V192.812C626.467 197.604 620.851 200 612.915 200C607.448 200 602.976 198.58 599.492 195.732C596.012 192.888 594.268 188.696 594.268 183.152C594.268 177.608 596.288 172.82 600.332 169.448C604.376 166.08 610.14 164.392 617.627 164.392H629.647C629.647 161.848 628.787 159.6 627.063 157.652C625.339 155.704 622.643 154.732 618.975 154.732C614.259 154.732 609.952 156.344 606.06 159.56L597.3 149.788C603.288 143.872 611.004 140.916 620.435 140.916C627.771 140.916 633.783 142.9 638.463 146.868C643.143 150.836 645.483 156.604 645.483 164.164L645.595 199.096L645.599 199.1ZM629.647 178.996V174.392H620.999C617.631 174.392 614.991 175.028 613.079 176.3C611.172 177.576 610.216 179.372 610.216 181.692C610.216 183.712 610.948 185.304 612.407 186.464C613.867 187.624 615.759 188.204 618.079 188.204C621.299 188.204 624.031 187.344 626.279 185.62C628.523 183.9 629.647 181.688 629.647 178.992V178.996Z" fill="#0C4C38"/>
<path d="M687.937 140.472C694.001 140.472 698.905 142.308 702.649 145.976C706.393 149.644 708.265 154.624 708.265 160.916V199.104H692.429V164.172C692.429 161.18 691.549 158.744 689.789 156.872C688.029 155 685.766 154.064 682.994 154.064C680.222 154.064 677.846 155 676.086 156.872C674.326 158.744 673.446 161.18 673.446 164.172V199.104H657.61V141.372H673.446V147.776C676.438 142.908 681.27 140.476 687.933 140.476L687.937 140.472Z" fill="#0C4C38"/>
<path d="M748.588 186.52C754.576 186.372 759.032 184.384 761.951 180.568L771.275 189.664C769.027 192.808 765.847 195.264 761.727 197.02C757.608 198.78 753.004 199.66 747.912 199.66C738.704 199.66 731.4 196.552 726.012 190.336C721.521 185.244 719.273 178.62 719.273 170.456C719.273 164.54 720.509 159.112 722.98 154.172C725.228 149.98 728.388 146.668 732.472 144.232C736.552 141.8 741.14 140.58 746.232 140.58C752.82 140.58 758.288 142.32 762.631 145.804C766.971 149.284 770.007 154.172 771.727 160.46C772.923 164.356 773.523 169.296 773.523 175.284H735.112C735.56 177.832 736.46 179.928 737.808 181.572C740.056 184.868 743.648 186.512 748.592 186.512L748.588 186.52ZM746.116 153.952C741.696 153.952 738.628 155.824 736.908 159.568C735.932 161.364 735.296 163.348 735 165.52H757.464C757.164 163.572 756.64 161.812 755.892 160.24C754.02 156.196 750.76 154.1 746.12 153.952H746.116Z" fill="#0C4C38"/>
<path d="M812.494 140.584C815.414 140.584 817.81 141.296 819.682 142.72L816.986 157.432C815.862 156.608 813.914 156.196 811.146 156.196C810.246 156.196 809.574 156.236 809.126 156.308C806.43 156.608 804.146 157.712 802.274 159.62C800.402 161.528 799.466 163.944 799.466 166.864V199.1H783.631V141.368H799.466V148.78C802.31 143.316 806.654 140.58 812.494 140.58V140.584Z" fill="#0C4C38"/>
</g>
<defs>
<clipPath id="clip0_1392_3184">
<rect width="890" height="200" fill="white"/>
</clipPath>
</defs>
</svg>
