<svg width="100%" height="100%" viewBox="0 0 187 42" fill="none" xmlns="http://www.w3.org/2000/svg">
<g clip-path="url(#clip0_2252_31074)">
<path d="M3.36757 0H36.1276V42H0.00756836V3.36C0.00756836 1.50528 1.51285 0 3.36757 0Z" fill="#0C4C38"/>
<path d="M50.4773 24.36V42H31.5773V26.88C31.5773 23.6326 28.9447 21 25.6973 21H47.1173C48.9728 21 50.4773 22.5044 50.4773 24.36Z" fill="#40B5FF"/>
<path d="M0 26.04H15.5089C18.7538 26.04 21.3889 28.6751 21.3889 31.92V42H0V26.04Z" fill="#C8ECD9"/>
<path d="M47.5373 21H25.6973C22.4499 21 19.8173 18.3674 19.8173 15.12V0H35.7773C39.0247 0 41.6573 2.63256 41.6573 5.88V15.12C41.6573 18.3674 44.2899 21 47.5373 21Z" fill="#449C76"/>
<path d="M62.5817 16.8882C59.9869 16.8882 57.8323 16.0709 56.1187 14.4354L57.9348 12.2422C59.3032 13.4845 60.8278 14.1053 62.5103 14.1053C63.4687 14.1053 64.2046 13.9087 64.7153 13.5156C65.226 13.1225 65.4822 12.6193 65.4822 12.0061C65.4822 11.692 65.3999 11.4131 65.2344 11.1686C65.0689 10.925 64.8883 10.7285 64.6918 10.579C64.4952 10.4294 64.1726 10.2766 63.7249 10.1186C63.2764 9.96156 62.9345 9.85572 62.6993 9.80028C62.4632 9.74568 62.0542 9.64656 61.4729 9.50544C59.9474 9.09636 58.7681 8.52684 57.9348 7.7952C57.1007 7.0644 56.6849 6.09336 56.6849 4.88208C56.6849 3.38856 57.2191 2.20164 58.2884 1.32048C59.3577 0.44016 60.7967 0 62.6052 0C64.7749 0 66.654 0.66864 68.2424 2.00508L66.3558 4.2462C65.8837 3.80604 65.31 3.4482 64.6338 3.17268C63.9576 2.898 63.2898 2.76024 62.6287 2.76024C61.8584 2.76024 61.2293 2.93748 60.7421 3.29112C60.254 3.64476 60.0104 4.15212 60.0104 4.81236C60.0104 5.29956 60.2465 5.69352 60.7177 5.99172C61.189 6.29076 61.9836 6.5898 63.1 6.888C63.8702 7.10808 64.4952 7.30044 64.9748 7.46592C65.4545 7.6314 65.9652 7.85484 66.5078 8.13792C67.0505 8.421 67.4705 8.72004 67.7695 9.0342C68.0677 9.3492 68.3155 9.74568 68.5129 10.2253C68.7095 10.705 68.8078 11.251 68.8078 11.865C68.8078 13.4064 68.2609 14.6286 67.1689 15.5324C66.0761 16.4371 64.5464 16.889 62.5817 16.889V16.8882Z" fill="#0C4C38"/>
<path d="M84.1865 4.38721C85.3969 4.38721 86.3487 4.75681 87.0408 5.49601C87.733 6.23521 88.0791 7.27345 88.0791 8.60905V16.6991H84.7535V9.26929C84.7535 8.62501 84.588 8.11345 84.2579 7.73629C83.9278 7.35913 83.4876 7.17013 82.9374 7.17013C82.3872 7.17013 81.9387 7.36249 81.5934 7.74805C81.2473 8.13361 81.0743 8.63257 81.0743 9.24577V16.6991H77.7723V9.26929C77.7723 8.64097 77.5992 8.13361 77.2531 7.74805C76.9071 7.36333 76.4593 7.17013 75.9091 7.17013C75.406 7.17013 74.9851 7.32385 74.6475 7.63045C74.3089 7.93705 74.109 8.34949 74.046 8.86861V16.6991H70.7205V4.57537H74.046V6.01429C74.6903 4.92901 75.7361 4.38721 77.1826 4.38721C78.9121 4.38721 80.0755 5.07097 80.6736 6.43933C81.3498 5.07097 82.5208 4.38721 84.1882 4.38721H84.1865Z" fill="#0C4C38"/>
<path d="M100.744 16.6991H97.4181V15.3786C96.726 16.3849 95.5466 16.8881 93.8801 16.8881C92.7318 16.8881 91.7927 16.5899 91.061 15.9918C90.3302 15.3946 89.964 14.5143 89.964 13.35C89.964 12.1858 90.3882 11.1803 91.2374 10.4722C92.0867 9.76491 93.2971 9.41043 94.8696 9.41043H97.3938C97.3938 8.87619 97.2132 8.40411 96.8511 7.99503C96.4891 7.58595 95.9229 7.38183 95.1527 7.38183C94.1623 7.38183 93.2576 7.72035 92.4403 8.39571L90.6007 6.34359C91.8582 5.10123 93.4786 4.48047 95.4593 4.48047C96.9998 4.48047 98.2623 4.89711 99.2451 5.73039C100.228 6.56367 100.719 7.77495 100.719 9.36255L100.743 16.6983L100.744 16.6991ZM97.3946 12.4773V11.5104H95.5785C94.8713 11.5104 94.3169 11.644 93.9154 11.9111C93.5147 12.1791 93.3139 12.5562 93.3139 13.0434C93.3139 13.4676 93.4676 13.8019 93.7742 14.0455C94.0808 14.2891 94.4782 14.4109 94.9654 14.4109C95.6416 14.4109 96.2153 14.2303 96.6874 13.8683C97.1586 13.5071 97.3946 13.0426 97.3946 12.4764V12.4773Z" fill="#0C4C38"/>
<path d="M109.329 4.41075C109.943 4.41075 110.446 4.56027 110.839 4.85931L110.273 7.94883C110.037 7.77579 109.628 7.68927 109.046 7.68927C108.857 7.68927 108.716 7.69767 108.622 7.71279C108.056 7.77579 107.576 8.00763 107.183 8.40831C106.79 8.80899 106.593 9.31635 106.593 9.92955V16.6991H103.268V4.57539H106.593V6.13191C107.191 4.98447 108.103 4.40991 109.329 4.40991V4.41075Z" fill="#0C4C38"/>
<path d="M119.141 7.24085H116.476V12.2649C116.476 13.3502 117.019 13.9163 118.103 13.9634C118.15 13.9634 118.217 13.9676 118.304 13.9751C118.39 13.9835 118.458 13.9869 118.505 13.9869C118.552 13.9869 118.626 13.9835 118.729 13.9751C118.831 13.9676 118.905 13.9634 118.953 13.9634V16.6992C118.136 16.7463 117.554 16.7698 117.208 16.7698C116.516 16.7698 115.918 16.695 115.415 16.5455C114.912 16.396 114.526 16.2078 114.259 15.9794C113.992 15.7517 113.784 15.4644 113.634 15.1184C113.485 14.7723 113.391 14.4581 113.351 14.175C113.312 13.892 113.292 13.5543 113.292 13.1612V7.24085H111.523V4.57553H113.292V1.36841H116.477V4.57637H119.142V7.24169L119.141 7.24085Z" fill="#0C4C38"/>
<path d="M141.194 0.188965H144.566L140.557 16.6992H137.255L134.707 5.92028L132.349 16.6992H129.212L124.873 0.188965H128.387L130.746 10.3311L133.034 0.188965H136.407L138.93 10.3782L141.195 0.188965H141.194Z" fill="#0C4C38"/>
<path d="M155.276 16.6991H151.95V15.3786C151.258 16.3849 150.079 16.8881 148.412 16.8881C147.264 16.8881 146.325 16.5899 145.593 15.9918C144.862 15.3946 144.496 14.5143 144.496 13.35C144.496 12.1858 144.92 11.1803 145.769 10.4722C146.619 9.76491 147.829 9.41043 149.402 9.41043H151.926C151.926 8.87619 151.745 8.40411 151.383 7.99503C151.021 7.58595 150.455 7.38183 149.685 7.38183C148.694 7.38183 147.79 7.72035 146.972 8.39571L145.133 6.34359C146.39 5.10123 148.011 4.48047 149.991 4.48047C151.532 4.48047 152.794 4.89711 153.777 5.73039C154.76 6.56367 155.251 7.77495 155.251 9.36255L155.275 16.6983L155.276 16.6991ZM151.927 12.4773V11.5104H150.111C149.403 11.5104 148.849 11.644 148.447 11.9111C148.047 12.1791 147.846 12.5562 147.846 13.0434C147.846 13.4676 148 13.8019 148.306 14.0455C148.613 14.2891 149.01 14.4109 149.497 14.4109C150.174 14.4109 150.747 14.2303 151.219 13.8683C151.691 13.5071 151.927 13.0434 151.927 12.4773Z" fill="#0C4C38"/>
<path d="M164.427 7.24085H161.762V12.2649C161.762 13.3502 162.305 13.9163 163.389 13.9634C163.436 13.9634 163.503 13.9676 163.59 13.9751C163.677 13.9835 163.744 13.9869 163.791 13.9869C163.838 13.9869 163.913 13.9835 164.015 13.9751C164.117 13.9676 164.191 13.9634 164.239 13.9634V16.6992C163.422 16.7463 162.84 16.7698 162.494 16.7698C161.802 16.7698 161.204 16.695 160.701 16.5455C160.198 16.396 159.813 16.2078 159.545 15.9794C159.278 15.7517 159.07 15.4644 158.92 15.1184C158.771 14.7723 158.677 14.4581 158.637 14.175C158.598 13.892 158.579 13.5543 158.579 13.1612V7.24085H156.81V4.57553H158.579V1.36841H161.763V4.57637H164.428V7.24169L164.427 7.24085Z" fill="#0C4C38"/>
<path d="M171.975 14.0573C173.232 14.0262 174.168 13.6088 174.781 12.8074L176.739 14.7176C176.267 15.3778 175.599 15.8936 174.734 16.2623C173.869 16.6319 172.902 16.8167 171.833 16.8167C169.899 16.8167 168.365 16.164 167.234 14.8587C166.291 13.7894 165.819 12.3983 165.819 10.6839C165.819 9.44151 166.078 8.30163 166.597 7.26423C167.069 6.38391 167.733 5.68839 168.591 5.17683C169.447 4.66611 170.411 4.40991 171.48 4.40991C172.864 4.40991 174.012 4.77531 174.924 5.50695C175.836 6.23775 176.473 7.26423 176.834 8.58471C177.085 9.40287 177.211 10.4403 177.211 11.6978H169.145C169.239 12.2328 169.428 12.673 169.711 13.0182C170.183 13.7104 170.937 14.0556 171.976 14.0556L171.975 14.0573ZM171.456 7.21719C170.528 7.21719 169.883 7.61031 169.522 8.39655C169.317 8.77371 169.184 9.19035 169.121 9.64647H173.839C173.776 9.23739 173.666 8.86779 173.509 8.53767C173.116 7.68843 172.431 7.24827 171.457 7.21719H171.456Z" fill="#0C4C38"/>
<path d="M185.396 4.41075C186.009 4.41075 186.512 4.56027 186.905 4.85931L186.339 7.94883C186.103 7.77579 185.694 7.68927 185.112 7.68927C184.923 7.68927 184.782 7.69767 184.688 7.71279C184.122 7.77579 183.642 8.00763 183.249 8.40831C182.856 8.80899 182.66 9.31635 182.66 9.92955V16.6991H179.334V4.57539H182.66V6.13191C183.257 4.98447 184.169 4.40991 185.396 4.40991V4.41075Z" fill="#0C4C38"/>
<path d="M74.4677 33.2019C75.348 33.5791 76.0318 34.1142 76.5198 34.8055C77.007 35.4976 77.2506 36.2914 77.2506 37.1877C77.2506 38.6342 76.7516 39.7665 75.7529 40.5838C74.7541 41.402 73.3505 41.8102 71.5428 41.8102H64.9387V25.3H71.0716C72.8171 25.3 74.2006 25.6932 75.2228 26.4794C76.2451 27.2656 76.7558 28.319 76.7558 29.6403C76.7558 31.3228 75.9931 32.5098 74.4677 33.2019ZM68.2643 28.0838V32.1645H70.9296C71.6999 32.1645 72.3097 31.9839 72.7574 31.6219C73.206 31.2607 73.4294 30.7651 73.4294 30.1359C73.4294 29.5068 73.2094 29.0078 72.7692 28.6382C72.329 28.2686 71.7394 28.0838 71.0002 28.0838H68.2643ZM71.4958 39.0282C72.235 39.0282 72.8246 38.8358 73.2648 38.4502C73.705 38.0655 73.925 37.5422 73.925 36.882C73.925 36.1747 73.705 35.6278 73.2648 35.2431C72.8246 34.8584 72.219 34.6652 71.4487 34.6652H68.2643V39.029H71.4958V39.0282Z" fill="#0C4C38"/>
<path d="M85.5767 33.1782H91.8742C91.8582 34.8137 91.7599 36.1501 91.5793 37.1875C91.3987 38.2249 91.0804 39.0742 90.6242 39.7352C89.602 41.2447 87.9035 41.9999 85.5296 41.9999C83.407 41.9999 81.8026 41.3321 80.7181 39.9948C79.5539 38.5643 78.9726 36.4256 78.9726 33.5789C78.9726 30.7321 79.5539 28.5632 80.7181 27.163C81.8034 25.7946 83.391 25.1108 85.4826 25.1108C87.5742 25.1108 89.1307 25.7711 90.153 27.0924C90.9233 27.8786 91.4575 28.9874 91.7565 30.418L88.5486 31.0076C88.4386 30.1903 88.242 29.5687 87.9589 29.1445C87.5188 28.2953 86.693 27.8711 85.4826 27.8711C84.3814 27.8711 83.5876 28.2718 83.1004 29.074C82.5502 29.9232 82.2746 31.4251 82.2746 33.5789C82.2746 35.7326 82.5418 37.1724 83.0768 37.9897C83.58 38.8079 84.4292 39.2161 85.6246 39.2161C86.8199 39.2161 87.6918 38.776 88.1479 37.8956C88.431 37.3295 88.5965 36.5592 88.6435 35.584H85.5775V33.1782H85.5767Z" fill="#0C4C38"/>
<path d="M94.327 41.811V25.3008H97.6525V41.811H94.327Z" fill="#0C4C38"/>
<path d="M112.37 25.2773C113.943 25.2773 115.204 25.7494 116.156 26.6927C117.107 27.6361 117.583 28.8784 117.583 30.419C117.583 31.9595 117.092 33.1397 116.109 34.0511C115.126 34.9634 113.833 35.4271 112.229 35.443L108.762 35.4665V41.8111H105.436V25.2773H112.37ZM111.875 32.8247C112.599 32.8247 113.18 32.6122 113.621 32.188C114.061 31.7638 114.281 31.1893 114.281 30.466C114.281 29.7428 114.061 29.1136 113.621 28.6735C113.181 28.2333 112.599 28.0132 111.875 28.0132H108.762V32.8247H111.875Z" fill="#0C4C38"/>
<path d="M119.493 41.811V25.3008H122.819V41.811H119.493Z" fill="#0C4C38"/>
<path d="M135.579 41.8109H132.254V40.4904C131.562 41.4968 130.382 41.9999 128.716 41.9999C127.567 41.9999 126.628 41.7017 125.897 41.1036C125.166 40.5064 124.8 39.6261 124.8 38.4618C124.8 37.2976 125.224 36.2921 126.073 35.584C126.922 34.8767 128.133 34.5222 129.705 34.5222H132.229C132.229 33.988 132.049 33.5159 131.687 33.1068C131.325 32.6978 130.759 32.4936 129.988 32.4936C128.998 32.4936 128.093 32.8322 127.276 33.5075L125.436 31.4554C126.694 30.213 128.314 29.5923 130.295 29.5923C131.835 29.5923 133.098 30.0089 134.081 30.8422C135.064 31.6755 135.555 32.8868 135.555 34.4744L135.579 41.8101L135.579 41.8109ZM132.229 37.5891V36.6222H130.413C129.706 36.6222 129.152 36.7558 128.75 37.0229C128.349 37.2909 128.149 37.668 128.149 38.1552C128.149 38.5794 128.302 38.9138 128.609 39.1574C128.916 39.401 129.313 39.5228 129.8 39.5228C130.476 39.5228 131.05 39.3422 131.522 38.9801C131.993 38.6189 132.229 38.1544 132.229 37.5882V37.5891Z" fill="#0C4C38"/>
<path d="M144.471 29.499C145.744 29.499 146.774 29.8846 147.56 30.6549C148.347 31.4251 148.74 32.4709 148.74 33.7923V41.8117H145.414V34.476C145.414 33.8477 145.229 33.3361 144.86 32.943C144.49 32.5499 144.015 32.3533 143.433 32.3533C142.85 32.3533 142.351 32.5499 141.982 32.943C141.612 33.3361 141.427 33.8477 141.427 34.476V41.8117H138.102V29.688H141.427V31.0329C142.056 30.0106 143.07 29.4999 144.47 29.4999L144.471 29.499Z" fill="#0C4C38"/>
<path d="M157.208 39.1691C158.465 39.138 159.401 38.7206 160.014 37.9192L161.972 39.8294C161.5 40.4896 160.832 41.0054 159.967 41.3741C159.102 41.7437 158.135 41.9285 157.066 41.9285C155.132 41.9285 153.598 41.2758 152.467 39.9705C151.523 38.9012 151.051 37.5101 151.051 35.7957C151.051 34.5533 151.311 33.4134 151.83 32.376C152.302 31.4957 152.966 30.8002 153.823 30.2886C154.68 29.7779 155.644 29.5217 156.713 29.5217C158.096 29.5217 159.245 29.8871 160.157 30.6188C161.068 31.3496 161.706 32.376 162.067 33.6965C162.318 34.5147 162.444 35.5521 162.444 36.8096H154.378C154.472 37.3446 154.661 37.7848 154.944 38.13C155.416 38.8222 156.17 39.1674 157.208 39.1674L157.208 39.1691ZM156.689 32.3298C155.76 32.3298 155.116 32.723 154.755 33.5092C154.55 33.8864 154.416 34.303 154.354 34.7591H159.072C159.009 34.35 158.899 33.9804 158.741 33.6503C158.348 32.8011 157.664 32.3609 156.689 32.3298H156.689Z" fill="#0C4C38"/>
<path d="M170.628 29.5226C171.242 29.5226 171.745 29.6721 172.138 29.9711L171.572 33.0606C171.336 32.8876 170.927 32.8011 170.345 32.8011C170.156 32.8011 170.015 32.8095 169.921 32.8246C169.355 32.8876 168.875 33.1194 168.482 33.5201C168.089 33.9208 167.892 34.4282 167.892 35.0414V41.8109H164.567V29.6872H167.892V31.2437C168.49 30.0963 169.402 29.5217 170.628 29.5217V29.5226Z" fill="#0C4C38"/>
</g>
<defs>
<clipPath id="clip0_2252_31074">
<rect width="100%" height="100%" fill="white"/>
</clipPath>
</defs>
</svg>
