<svg width="384" height="96" viewBox="0 0 384 96" fill="none" xmlns="http://www.w3.org/2000/svg">
<rect x="16" y="25.5" width="50" height="5" fill="#BE47F6"/>
<path d="M85.12 28.16C85.0667 28.192 85.0667 28.224 85.12 28.256C85.696 28.4907 86.1333 28.8373 86.432 29.296C86.7307 29.7547 86.88 30.3093 86.88 30.96C86.88 31.92 86.5707 32.6667 85.952 33.2C85.344 33.7333 84.5387 34 83.536 34H79.664C79.5573 34 79.504 33.9467 79.504 33.84V22.96C79.504 22.8533 79.5573 22.8 79.664 22.8H83.424C84.4587 22.8 85.2693 23.056 85.856 23.568C86.4533 24.08 86.752 24.8 86.752 25.728C86.752 26.3147 86.608 26.816 86.32 27.232C86.0427 27.6373 85.6427 27.9467 85.12 28.16ZM80.704 23.792C80.6613 23.792 80.64 23.8133 80.64 23.856V27.696C80.64 27.7387 80.6613 27.76 80.704 27.76H83.424C84.096 27.76 84.6293 27.584 85.024 27.232C85.4293 26.88 85.632 26.4107 85.632 25.824C85.632 25.2053 85.4293 24.7147 85.024 24.352C84.6293 23.9787 84.096 23.792 83.424 23.792H80.704ZM83.536 32.992C84.208 32.992 84.7413 32.8 85.136 32.416C85.5413 32.032 85.744 31.5147 85.744 30.864C85.744 30.2133 85.536 29.696 85.12 29.312C84.7147 28.9173 84.1653 28.72 83.472 28.72H80.704C80.6613 28.72 80.64 28.7413 80.64 28.784V32.928C80.64 32.9707 80.6613 32.992 80.704 32.992H83.536ZM95.7693 28.592C95.8119 28.8907 95.8333 29.264 95.8333 29.712V30.224C95.8333 30.3307 95.7799 30.384 95.6733 30.384H90.5053C90.4626 30.384 90.4413 30.4053 90.4413 30.448C90.4626 31.0347 90.4946 31.4133 90.5373 31.584C90.6546 32.064 90.9053 32.4427 91.2893 32.72C91.6733 32.9973 92.1639 33.136 92.7613 33.136C93.2093 33.136 93.6039 33.0347 93.9453 32.832C94.2866 32.6293 94.5533 32.3413 94.7453 31.968C94.8093 31.872 94.8839 31.8507 94.9693 31.904L95.5933 32.272C95.6786 32.3253 95.6999 32.4 95.6573 32.496C95.3906 33.008 94.9906 33.4133 94.4573 33.712C93.9239 34 93.3106 34.144 92.6173 34.144C91.8599 34.1333 91.2253 33.952 90.7133 33.6C90.2013 33.248 89.8333 32.7573 89.6093 32.128C89.4173 31.616 89.3213 30.88 89.3213 29.92C89.3213 29.472 89.3266 29.1093 89.3372 28.832C89.3586 28.544 89.4013 28.288 89.4653 28.064C89.6466 27.3707 90.0093 26.816 90.5533 26.4C91.1079 25.984 91.7746 25.776 92.5533 25.776C93.5239 25.776 94.2706 26.0213 94.7933 26.512C95.3159 27.0027 95.6413 27.696 95.7693 28.592ZM92.5533 26.768C92.0306 26.768 91.5933 26.9067 91.2413 27.184C90.8999 27.4507 90.6759 27.8133 90.5693 28.272C90.5053 28.496 90.4626 28.8587 90.4413 29.36C90.4413 29.4027 90.4626 29.424 90.5053 29.424H94.6493C94.6919 29.424 94.7133 29.4027 94.7133 29.36C94.6919 28.88 94.6599 28.5387 94.6173 28.336C94.4999 27.856 94.2599 27.4773 93.8973 27.2C93.5453 26.912 93.0973 26.768 92.5533 26.768ZM97.7665 34C97.6598 34 97.6065 33.9467 97.6065 33.84V33.072C97.6065 32.9973 97.6278 32.9333 97.6705 32.88L102.215 27.024C102.236 27.0027 102.241 26.9867 102.231 26.976C102.22 26.9547 102.204 26.944 102.183 26.944H97.8305C97.7238 26.944 97.6705 26.8907 97.6705 26.784V26.064C97.6705 25.9573 97.7238 25.904 97.8305 25.904H103.447C103.553 25.904 103.607 25.9573 103.607 26.064V26.832C103.607 26.9067 103.585 26.9707 103.543 27.024L98.9505 32.88C98.9292 32.9013 98.9238 32.9227 98.9345 32.944C98.9452 32.9547 98.9612 32.96 98.9825 32.96H103.447C103.553 32.96 103.607 33.0133 103.607 33.12V33.84C103.607 33.9467 103.553 34 103.447 34H97.7665ZM106.486 24.432C106.23 24.432 106.016 24.3467 105.846 24.176C105.675 24.0053 105.59 23.792 105.59 23.536C105.59 23.2693 105.675 23.056 105.846 22.896C106.016 22.7253 106.23 22.64 106.486 22.64C106.742 22.64 106.955 22.7253 107.126 22.896C107.296 23.056 107.382 23.2693 107.382 23.536C107.382 23.792 107.296 24.0053 107.126 24.176C106.955 24.3467 106.742 24.432 106.486 24.432ZM106.038 33.984C105.931 33.984 105.878 33.9307 105.878 33.824V26.048C105.878 25.9413 105.931 25.888 106.038 25.888H106.854C106.96 25.888 107.014 25.9413 107.014 26.048V33.824C107.014 33.9307 106.96 33.984 106.854 33.984H106.038ZM113.31 25.824C113.662 25.824 113.966 25.8933 114.222 26.032C114.307 26.0747 114.339 26.144 114.318 26.24L114.142 27.024C114.11 27.1307 114.04 27.1627 113.934 27.12C113.752 27.0453 113.544 27.008 113.31 27.008L113.102 27.024C112.547 27.0453 112.088 27.2533 111.726 27.648C111.363 28.032 111.182 28.5227 111.182 29.12V33.84C111.182 33.9467 111.128 34 111.022 34H110.206C110.099 34 110.046 33.9467 110.046 33.84V26.064C110.046 25.9573 110.099 25.904 110.206 25.904H111.022C111.128 25.904 111.182 25.9573 111.182 26.064V27.04C111.182 27.072 111.187 27.0933 111.198 27.104C111.219 27.104 111.235 27.0933 111.246 27.072C111.47 26.6773 111.752 26.3733 112.094 26.16C112.446 25.936 112.851 25.824 113.31 25.824ZM116.284 34C116.177 34 116.124 33.9467 116.124 33.84V22.96C116.124 22.8533 116.177 22.8 116.284 22.8H117.1C117.206 22.8 117.26 22.8533 117.26 22.96V29.504C117.26 29.5253 117.265 29.5413 117.276 29.552C117.297 29.5627 117.318 29.5573 117.34 29.536L120.732 25.984C120.785 25.9307 120.849 25.904 120.924 25.904H121.884C121.948 25.904 121.99 25.9253 122.012 25.968C122.033 26.0107 122.022 26.0533 121.98 26.096L119.932 28.368C119.91 28.3893 119.905 28.416 119.916 28.448L122.364 33.808L122.38 33.872C122.38 33.9573 122.332 34 122.236 34H121.372C121.286 34 121.228 33.9573 121.196 33.872L119.132 29.2C119.11 29.1573 119.084 29.152 119.052 29.184L117.292 31.04C117.27 31.0613 117.26 31.088 117.26 31.12V33.84C117.26 33.9467 117.206 34 117.1 34H116.284ZM126.983 34.08C126.386 34.08 125.852 33.984 125.383 33.792C124.924 33.6 124.567 33.344 124.311 33.024C124.066 32.704 123.943 32.3467 123.943 31.952V31.76C123.943 31.6533 123.996 31.6 124.103 31.6H124.871C124.978 31.6 125.031 31.6533 125.031 31.76V31.888C125.031 32.24 125.212 32.5493 125.575 32.816C125.948 33.072 126.412 33.2 126.967 33.2C127.522 33.2 127.97 33.0773 128.311 32.832C128.652 32.576 128.823 32.256 128.823 31.872C128.823 31.6053 128.732 31.3867 128.551 31.216C128.38 31.0453 128.172 30.912 127.927 30.816C127.692 30.72 127.324 30.5973 126.823 30.448C126.226 30.2773 125.735 30.1067 125.351 29.936C124.967 29.7653 124.642 29.5307 124.375 29.232C124.119 28.9227 123.991 28.5333 123.991 28.064C123.991 27.3813 124.258 26.8373 124.791 26.432C125.324 26.0267 126.028 25.824 126.903 25.824C127.49 25.824 128.007 25.92 128.455 26.112C128.914 26.304 129.266 26.5707 129.511 26.912C129.756 27.2427 129.879 27.616 129.879 28.032V28.08C129.879 28.1867 129.826 28.24 129.719 28.24H128.967C128.86 28.24 128.807 28.1867 128.807 28.08V28.032C128.807 27.6693 128.631 27.3653 128.279 27.12C127.938 26.8747 127.474 26.752 126.887 26.752C126.343 26.752 125.906 26.864 125.575 27.088C125.244 27.3013 125.079 27.6 125.079 27.984C125.079 28.3467 125.239 28.624 125.559 28.816C125.879 29.008 126.375 29.2 127.047 29.392C127.666 29.5733 128.167 29.744 128.551 29.904C128.935 30.064 129.266 30.2987 129.543 30.608C129.82 30.9067 129.959 31.3013 129.959 31.792C129.959 32.4853 129.687 33.04 129.143 33.456C128.599 33.872 127.879 34.08 126.983 34.08ZM137.272 26.064C137.272 25.9573 137.325 25.904 137.432 25.904H138.248C138.355 25.904 138.408 25.9573 138.408 26.064V33.728C138.408 34.9227 138.061 35.7973 137.368 36.352C136.685 36.9067 135.741 37.184 134.536 37.184C134.291 37.184 134.104 37.1787 133.976 37.168C133.869 37.1573 133.816 37.0987 133.816 36.992L133.848 36.256C133.848 36.2027 133.864 36.16 133.896 36.128C133.928 36.1067 133.965 36.1013 134.008 36.112L134.44 36.128C135.432 36.128 136.152 35.9307 136.6 35.536C137.048 35.152 137.272 34.5387 137.272 33.696V33.104C137.272 33.0827 137.261 33.072 137.24 33.072C137.229 33.0613 137.213 33.0667 137.192 33.088C136.701 33.728 136.003 34.048 135.096 34.048C134.403 34.048 133.784 33.8613 133.24 33.488C132.707 33.1147 132.349 32.5867 132.168 31.904C132.04 31.4667 131.976 30.816 131.976 29.952C131.976 29.4827 131.987 29.088 132.008 28.768C132.04 28.448 132.099 28.16 132.184 27.904C132.376 27.264 132.723 26.752 133.224 26.368C133.725 25.9733 134.328 25.776 135.032 25.776C135.981 25.776 136.701 26.0907 137.192 26.72C137.213 26.7413 137.229 26.7467 137.24 26.736C137.261 26.7253 137.272 26.7093 137.272 26.688V26.064ZM137.192 31.552C137.224 31.392 137.245 31.1947 137.256 30.96C137.267 30.7253 137.272 30.384 137.272 29.936C137.272 29.392 137.267 29.0293 137.256 28.848C137.245 28.656 137.219 28.48 137.176 28.32C137.091 27.872 136.877 27.504 136.536 27.216C136.205 26.9173 135.784 26.768 135.272 26.768C134.771 26.768 134.344 26.912 133.992 27.2C133.651 27.488 133.411 27.8613 133.272 28.32C133.165 28.6613 133.112 29.1947 133.112 29.92C133.112 30.6987 133.165 31.2373 133.272 31.536C133.379 31.984 133.608 32.3573 133.96 32.656C134.323 32.944 134.76 33.088 135.272 33.088C135.795 33.088 136.221 32.944 136.552 32.656C136.893 32.368 137.107 32 137.192 31.552ZM144.357 25.824C144.709 25.824 145.013 25.8933 145.269 26.032C145.354 26.0747 145.386 26.144 145.365 26.24L145.189 27.024C145.157 27.1307 145.087 27.1627 144.981 27.12C144.799 27.0453 144.591 27.008 144.357 27.008L144.149 27.024C143.594 27.0453 143.135 27.2533 142.773 27.648C142.41 28.032 142.229 28.5227 142.229 29.12V33.84C142.229 33.9467 142.175 34 142.069 34H141.253C141.146 34 141.093 33.9467 141.093 33.84V26.064C141.093 25.9573 141.146 25.904 141.253 25.904H142.069C142.175 25.904 142.229 25.9573 142.229 26.064V27.04C142.229 27.072 142.234 27.0933 142.245 27.104C142.266 27.104 142.282 27.0933 142.293 27.072C142.517 26.6773 142.799 26.3733 143.141 26.16C143.493 25.936 143.898 25.824 144.357 25.824ZM153.301 28.592C153.343 28.8907 153.365 29.264 153.365 29.712V30.224C153.365 30.3307 153.311 30.384 153.205 30.384H148.037C147.994 30.384 147.973 30.4053 147.973 30.448C147.994 31.0347 148.026 31.4133 148.069 31.584C148.186 32.064 148.437 32.4427 148.821 32.72C149.205 32.9973 149.695 33.136 150.293 33.136C150.741 33.136 151.135 33.0347 151.477 32.832C151.818 32.6293 152.085 32.3413 152.277 31.968C152.341 31.872 152.415 31.8507 152.501 31.904L153.125 32.272C153.21 32.3253 153.231 32.4 153.189 32.496C152.922 33.008 152.522 33.4133 151.989 33.712C151.455 34 150.842 34.144 150.149 34.144C149.391 34.1333 148.757 33.952 148.245 33.6C147.733 33.248 147.365 32.7573 147.141 32.128C146.949 31.616 146.853 30.88 146.853 29.92C146.853 29.472 146.858 29.1093 146.868 28.832C146.89 28.544 146.933 28.288 146.997 28.064C147.178 27.3707 147.541 26.816 148.085 26.4C148.639 25.984 149.306 25.776 150.085 25.776C151.055 25.776 151.802 26.0213 152.325 26.512C152.847 27.0027 153.173 27.696 153.301 28.592ZM150.085 26.768C149.562 26.768 149.125 26.9067 148.773 27.184C148.431 27.4507 148.207 27.8133 148.101 28.272C148.037 28.496 147.994 28.8587 147.973 29.36C147.973 29.4027 147.994 29.424 148.037 29.424H152.181C152.223 29.424 152.245 29.4027 152.245 29.36C152.223 28.88 152.191 28.5387 152.149 28.336C152.031 27.856 151.791 27.4773 151.429 27.2C151.077 26.912 150.629 26.768 150.085 26.768ZM159.234 25.792C160.087 25.792 160.764 26.0427 161.266 26.544C161.778 27.0453 162.034 27.7173 162.034 28.56V33.84C162.034 33.9467 161.98 34 161.874 34H161.058C160.951 34 160.898 33.9467 160.898 33.84V28.784C160.898 28.1973 160.716 27.7173 160.354 27.344C160.002 26.9707 159.543 26.784 158.978 26.784C158.391 26.784 157.916 26.9653 157.554 27.328C157.191 27.6907 157.01 28.1653 157.01 28.752V33.84C157.01 33.9467 156.956 34 156.85 34H156.034C155.927 34 155.874 33.9467 155.874 33.84V26.064C155.874 25.9573 155.927 25.904 156.034 25.904H156.85C156.956 25.904 157.01 25.9573 157.01 26.064V26.752C157.01 26.7733 157.015 26.7893 157.026 26.8C157.047 26.8107 157.063 26.8053 157.074 26.784C157.543 26.1227 158.263 25.792 159.234 25.792ZM164.173 34C164.066 34 164.013 33.9467 164.013 33.84V33.072C164.013 32.9973 164.034 32.9333 164.077 32.88L168.621 27.024C168.642 27.0027 168.647 26.9867 168.637 26.976C168.626 26.9547 168.61 26.944 168.589 26.944H164.237C164.13 26.944 164.077 26.8907 164.077 26.784V26.064C164.077 25.9573 164.13 25.904 164.237 25.904H169.853C169.959 25.904 170.013 25.9573 170.013 26.064V26.832C170.013 26.9067 169.991 26.9707 169.949 27.024L165.357 32.88C165.335 32.9013 165.33 32.9227 165.341 32.944C165.351 32.9547 165.367 32.96 165.389 32.96H169.853C169.959 32.96 170.013 33.0133 170.013 33.12V33.84C170.013 33.9467 169.959 34 169.853 34H164.173ZM178.332 28.592C178.374 28.8907 178.396 29.264 178.396 29.712V30.224C178.396 30.3307 178.342 30.384 178.236 30.384H173.068C173.025 30.384 173.004 30.4053 173.004 30.448C173.025 31.0347 173.057 31.4133 173.1 31.584C173.217 32.064 173.468 32.4427 173.852 32.72C174.236 32.9973 174.726 33.136 175.324 33.136C175.772 33.136 176.166 33.0347 176.508 32.832C176.849 32.6293 177.116 32.3413 177.308 31.968C177.372 31.872 177.446 31.8507 177.532 31.904L178.156 32.272C178.241 32.3253 178.262 32.4 178.22 32.496C177.953 33.008 177.553 33.4133 177.02 33.712C176.486 34 175.873 34.144 175.18 34.144C174.422 34.1333 173.788 33.952 173.276 33.6C172.764 33.248 172.396 32.7573 172.172 32.128C171.98 31.616 171.884 30.88 171.884 29.92C171.884 29.472 171.889 29.1093 171.9 28.832C171.921 28.544 171.964 28.288 172.028 28.064C172.209 27.3707 172.572 26.816 173.116 26.4C173.67 25.984 174.337 25.776 175.116 25.776C176.086 25.776 176.833 26.0213 177.356 26.512C177.878 27.0027 178.204 27.696 178.332 28.592ZM175.116 26.768C174.593 26.768 174.156 26.9067 173.804 27.184C173.462 27.4507 173.238 27.8133 173.132 28.272C173.068 28.496 173.025 28.8587 173.004 29.36C173.004 29.4027 173.025 29.424 173.068 29.424H177.212C177.254 29.424 177.276 29.4027 177.276 29.36C177.254 28.88 177.222 28.5387 177.18 28.336C177.062 27.856 176.822 27.4773 176.46 27.2C176.108 26.912 175.66 26.768 175.116 26.768Z" fill="currentColor"/>
<path d="M27.0264 73L24.6201 65.1592H24.5586C24.6452 66.7542 24.6885 67.8184 24.6885 68.3516V73H22.7949V63.0059H25.6797L28.0449 70.6484H28.0859L30.5947 63.0059H33.4795V73H31.5039V68.2695C31.5039 68.0462 31.5062 67.7887 31.5107 67.4971C31.5199 67.2054 31.5518 66.4307 31.6064 65.1729H31.5449L28.9678 73H27.0264ZM35.999 63.3818C35.999 62.7028 36.3773 62.3633 37.1338 62.3633C37.8903 62.3633 38.2686 62.7028 38.2686 63.3818C38.2686 63.7054 38.1729 63.9583 37.9814 64.1406C37.7946 64.3184 37.512 64.4072 37.1338 64.4072C36.3773 64.4072 35.999 64.0654 35.999 63.3818ZM38.1729 73H36.0879V65.3574H38.1729V73ZM43.8369 71.4756C44.2015 71.4756 44.639 71.3958 45.1494 71.2363V72.7881C44.6299 73.0205 43.9919 73.1367 43.2354 73.1367C42.4014 73.1367 41.793 72.9271 41.4102 72.5078C41.0319 72.084 40.8428 71.4505 40.8428 70.6074V66.9229H39.8447V66.041L40.9932 65.3438L41.5947 63.7305H42.9277V65.3574H45.0674V66.9229H42.9277V70.6074C42.9277 70.9036 43.0098 71.1224 43.1738 71.2637C43.3424 71.4049 43.5635 71.4756 43.8369 71.4756ZM50.1709 71.4756C50.5355 71.4756 50.973 71.3958 51.4834 71.2363V72.7881C50.9639 73.0205 50.3258 73.1367 49.5693 73.1367C48.7354 73.1367 48.127 72.9271 47.7441 72.5078C47.3659 72.084 47.1768 71.4505 47.1768 70.6074V66.9229H46.1787V66.041L47.3271 65.3438L47.9287 63.7305H49.2617V65.3574H51.4014V66.9229H49.2617V70.6074C49.2617 70.9036 49.3438 71.1224 49.5078 71.2637C49.6764 71.4049 49.8975 71.4756 50.1709 71.4756ZM56.4502 66.6973C56.0081 66.6973 55.6618 66.8385 55.4111 67.1211C55.1605 67.3991 55.0169 67.7956 54.9805 68.3105H57.9062C57.8971 67.7956 57.7627 67.3991 57.5029 67.1211C57.2432 66.8385 56.8923 66.6973 56.4502 66.6973ZM56.7441 73.1367C55.5137 73.1367 54.5521 72.7972 53.8594 72.1182C53.1667 71.4391 52.8203 70.4775 52.8203 69.2334C52.8203 67.9528 53.1393 66.9639 53.7773 66.2666C54.4199 65.5648 55.3063 65.2139 56.4365 65.2139C57.5166 65.2139 58.3574 65.5215 58.959 66.1367C59.5605 66.752 59.8613 67.6019 59.8613 68.6865V69.6982H54.9326C54.9554 70.2907 55.1309 70.7533 55.459 71.0859C55.7871 71.4186 56.2474 71.585 56.8398 71.585C57.3001 71.585 57.7354 71.5371 58.1455 71.4414C58.5557 71.3457 58.984 71.193 59.4307 70.9834V72.5967C59.0661 72.779 58.6764 72.9134 58.2617 73C57.847 73.0911 57.3411 73.1367 56.7441 73.1367Z" fill="#BE47F6"/>
<path d="M85.12 68.16C85.0667 68.192 85.0667 68.224 85.12 68.256C85.696 68.4907 86.1333 68.8373 86.432 69.296C86.7307 69.7547 86.88 70.3093 86.88 70.96C86.88 71.92 86.5707 72.6667 85.952 73.2C85.344 73.7333 84.5387 74 83.536 74H79.664C79.5573 74 79.504 73.9467 79.504 73.84V62.96C79.504 62.8533 79.5573 62.8 79.664 62.8H83.424C84.4587 62.8 85.2693 63.056 85.856 63.568C86.4533 64.08 86.752 64.8 86.752 65.728C86.752 66.3147 86.608 66.816 86.32 67.232C86.0427 67.6373 85.6427 67.9467 85.12 68.16ZM80.704 63.792C80.6613 63.792 80.64 63.8133 80.64 63.856V67.696C80.64 67.7387 80.6613 67.76 80.704 67.76H83.424C84.096 67.76 84.6293 67.584 85.024 67.232C85.4293 66.88 85.632 66.4107 85.632 65.824C85.632 65.2053 85.4293 64.7147 85.024 64.352C84.6293 63.9787 84.096 63.792 83.424 63.792H80.704ZM83.536 72.992C84.208 72.992 84.7413 72.8 85.136 72.416C85.5413 72.032 85.744 71.5147 85.744 70.864C85.744 70.2133 85.536 69.696 85.12 69.312C84.7147 68.9173 84.1653 68.72 83.472 68.72H80.704C80.6613 68.72 80.64 68.7413 80.64 68.784V72.928C80.64 72.9707 80.6613 72.992 80.704 72.992H83.536ZM95.7693 68.592C95.8119 68.8907 95.8333 69.264 95.8333 69.712V70.224C95.8333 70.3307 95.7799 70.384 95.6733 70.384H90.5053C90.4626 70.384 90.4413 70.4053 90.4413 70.448C90.4626 71.0347 90.4946 71.4133 90.5373 71.584C90.6546 72.064 90.9053 72.4427 91.2893 72.72C91.6733 72.9973 92.1639 73.136 92.7613 73.136C93.2093 73.136 93.6039 73.0347 93.9453 72.832C94.2866 72.6293 94.5533 72.3413 94.7453 71.968C94.8093 71.872 94.8839 71.8507 94.9693 71.904L95.5933 72.272C95.6786 72.3253 95.6999 72.4 95.6573 72.496C95.3906 73.008 94.9906 73.4133 94.4573 73.712C93.9239 74 93.3106 74.144 92.6173 74.144C91.8599 74.1333 91.2253 73.952 90.7133 73.6C90.2013 73.248 89.8333 72.7573 89.6093 72.128C89.4173 71.616 89.3213 70.88 89.3213 69.92C89.3213 69.472 89.3266 69.1093 89.3372 68.832C89.3586 68.544 89.4013 68.288 89.4653 68.064C89.6466 67.3707 90.0093 66.816 90.5533 66.4C91.1079 65.984 91.7746 65.776 92.5533 65.776C93.5239 65.776 94.2706 66.0213 94.7933 66.512C95.3159 67.0027 95.6413 67.696 95.7693 68.592ZM92.5533 66.768C92.0306 66.768 91.5933 66.9067 91.2413 67.184C90.8999 67.4507 90.6759 67.8133 90.5693 68.272C90.5053 68.496 90.4626 68.8587 90.4413 69.36C90.4413 69.4027 90.4626 69.424 90.5053 69.424H94.6493C94.6919 69.424 94.7133 69.4027 94.7133 69.36C94.6919 68.88 94.6599 68.5387 94.6173 68.336C94.4999 67.856 94.2599 67.4773 93.8973 67.2C93.5453 66.912 93.0973 66.768 92.5533 66.768ZM97.7665 74C97.6598 74 97.6065 73.9467 97.6065 73.84V73.072C97.6065 72.9973 97.6278 72.9333 97.6705 72.88L102.215 67.024C102.236 67.0027 102.241 66.9867 102.231 66.976C102.22 66.9547 102.204 66.944 102.183 66.944H97.8305C97.7238 66.944 97.6705 66.8907 97.6705 66.784V66.064C97.6705 65.9573 97.7238 65.904 97.8305 65.904H103.447C103.553 65.904 103.607 65.9573 103.607 66.064V66.832C103.607 66.9067 103.585 66.9707 103.543 67.024L98.9505 72.88C98.9292 72.9013 98.9238 72.9227 98.9345 72.944C98.9452 72.9547 98.9612 72.96 98.9825 72.96H103.447C103.553 72.96 103.607 73.0133 103.607 73.12V73.84C103.607 73.9467 103.553 74 103.447 74H97.7665ZM106.486 64.432C106.23 64.432 106.016 64.3467 105.846 64.176C105.675 64.0053 105.59 63.792 105.59 63.536C105.59 63.2693 105.675 63.056 105.846 62.896C106.016 62.7253 106.23 62.64 106.486 62.64C106.742 62.64 106.955 62.7253 107.126 62.896C107.296 63.056 107.382 63.2693 107.382 63.536C107.382 63.792 107.296 64.0053 107.126 64.176C106.955 64.3467 106.742 64.432 106.486 64.432ZM106.038 73.984C105.931 73.984 105.878 73.9307 105.878 73.824V66.048C105.878 65.9413 105.931 65.888 106.038 65.888H106.854C106.96 65.888 107.014 65.9413 107.014 66.048V73.824C107.014 73.9307 106.96 73.984 106.854 73.984H106.038ZM113.31 65.824C113.662 65.824 113.966 65.8933 114.222 66.032C114.307 66.0747 114.339 66.144 114.318 66.24L114.142 67.024C114.11 67.1307 114.04 67.1627 113.934 67.12C113.752 67.0453 113.544 67.008 113.31 67.008L113.102 67.024C112.547 67.0453 112.088 67.2533 111.726 67.648C111.363 68.032 111.182 68.5227 111.182 69.12V73.84C111.182 73.9467 111.128 74 111.022 74H110.206C110.099 74 110.046 73.9467 110.046 73.84V66.064C110.046 65.9573 110.099 65.904 110.206 65.904H111.022C111.128 65.904 111.182 65.9573 111.182 66.064V67.04C111.182 67.072 111.187 67.0933 111.198 67.104C111.219 67.104 111.235 67.0933 111.246 67.072C111.47 66.6773 111.752 66.3733 112.094 66.16C112.446 65.936 112.851 65.824 113.31 65.824ZM116.284 74C116.177 74 116.124 73.9467 116.124 73.84V62.96C116.124 62.8533 116.177 62.8 116.284 62.8H117.1C117.206 62.8 117.26 62.8533 117.26 62.96V69.504C117.26 69.5253 117.265 69.5413 117.276 69.552C117.297 69.5627 117.318 69.5573 117.34 69.536L120.732 65.984C120.785 65.9307 120.849 65.904 120.924 65.904H121.884C121.948 65.904 121.99 65.9253 122.012 65.968C122.033 66.0107 122.022 66.0533 121.98 66.096L119.932 68.368C119.91 68.3893 119.905 68.416 119.916 68.448L122.364 73.808L122.38 73.872C122.38 73.9573 122.332 74 122.236 74H121.372C121.286 74 121.228 73.9573 121.196 73.872L119.132 69.2C119.11 69.1573 119.084 69.152 119.052 69.184L117.292 71.04C117.27 71.0613 117.26 71.088 117.26 71.12V73.84C117.26 73.9467 117.206 74 117.1 74H116.284ZM126.983 74.08C126.386 74.08 125.852 73.984 125.383 73.792C124.924 73.6 124.567 73.344 124.311 73.024C124.066 72.704 123.943 72.3467 123.943 71.952V71.76C123.943 71.6533 123.996 71.6 124.103 71.6H124.871C124.978 71.6 125.031 71.6533 125.031 71.76V71.888C125.031 72.24 125.212 72.5493 125.575 72.816C125.948 73.072 126.412 73.2 126.967 73.2C127.522 73.2 127.97 73.0773 128.311 72.832C128.652 72.576 128.823 72.256 128.823 71.872C128.823 71.6053 128.732 71.3867 128.551 71.216C128.38 71.0453 128.172 70.912 127.927 70.816C127.692 70.72 127.324 70.5973 126.823 70.448C126.226 70.2773 125.735 70.1067 125.351 69.936C124.967 69.7653 124.642 69.5307 124.375 69.232C124.119 68.9227 123.991 68.5333 123.991 68.064C123.991 67.3813 124.258 66.8373 124.791 66.432C125.324 66.0267 126.028 65.824 126.903 65.824C127.49 65.824 128.007 65.92 128.455 66.112C128.914 66.304 129.266 66.5707 129.511 66.912C129.756 67.2427 129.879 67.616 129.879 68.032V68.08C129.879 68.1867 129.826 68.24 129.719 68.24H128.967C128.86 68.24 128.807 68.1867 128.807 68.08V68.032C128.807 67.6693 128.631 67.3653 128.279 67.12C127.938 66.8747 127.474 66.752 126.887 66.752C126.343 66.752 125.906 66.864 125.575 67.088C125.244 67.3013 125.079 67.6 125.079 67.984C125.079 68.3467 125.239 68.624 125.559 68.816C125.879 69.008 126.375 69.2 127.047 69.392C127.666 69.5733 128.167 69.744 128.551 69.904C128.935 70.064 129.266 70.2987 129.543 70.608C129.82 70.9067 129.959 71.3013 129.959 71.792C129.959 72.4853 129.687 73.04 129.143 73.456C128.599 73.872 127.879 74.08 126.983 74.08ZM135.64 65.792C136.493 65.792 137.171 66.0427 137.672 66.544C138.184 67.0453 138.44 67.7173 138.44 68.56V73.84C138.44 73.9467 138.387 74 138.28 74H137.464C137.357 74 137.304 73.9467 137.304 73.84V68.784C137.304 68.1973 137.123 67.7173 136.76 67.344C136.408 66.9707 135.949 66.784 135.384 66.784C134.797 66.784 134.323 66.9653 133.96 67.328C133.597 67.6907 133.416 68.1653 133.416 68.752V73.84C133.416 73.9467 133.363 74 133.256 74H132.44C132.333 74 132.28 73.9467 132.28 73.84V66.064C132.28 65.9573 132.333 65.904 132.44 65.904H133.256C133.363 65.904 133.416 65.9573 133.416 66.064V66.752C133.416 66.7733 133.421 66.7893 133.432 66.8C133.453 66.8107 133.469 66.8053 133.48 66.784C133.949 66.1227 134.669 65.792 135.64 65.792ZM143.955 65.776C144.915 65.776 145.656 66.0213 146.179 66.512C146.702 67.0027 146.963 67.6533 146.963 68.464V73.84C146.963 73.9467 146.91 74 146.803 74H145.987C145.88 74 145.827 73.9467 145.827 73.84V73.184C145.827 73.1627 145.816 73.1467 145.795 73.136C145.784 73.1253 145.768 73.1307 145.747 73.152C145.48 73.472 145.134 73.7173 144.707 73.888C144.28 74.048 143.806 74.128 143.283 74.128C142.526 74.128 141.891 73.936 141.379 73.552C140.867 73.168 140.611 72.5813 140.611 71.792C140.611 70.992 140.899 70.3627 141.475 69.904C142.062 69.4347 142.872 69.2 143.907 69.2H145.763C145.806 69.2 145.827 69.1787 145.827 69.136V68.528C145.827 67.984 145.672 67.5573 145.363 67.248C145.064 66.928 144.595 66.768 143.955 66.768C143.443 66.768 143.027 66.8693 142.707 67.072C142.387 67.264 142.19 67.536 142.115 67.888C142.083 67.9947 142.019 68.0427 141.923 68.032L141.059 67.92C140.942 67.8987 140.894 67.856 140.915 67.792C141 67.1947 141.32 66.7093 141.875 66.336C142.43 65.9627 143.123 65.776 143.955 65.776ZM143.507 73.152C144.136 73.152 144.68 72.9973 145.139 72.688C145.598 72.368 145.827 71.9413 145.827 71.408V70.16C145.827 70.1173 145.806 70.096 145.763 70.096H144.083C143.379 70.096 142.814 70.24 142.387 70.528C141.96 70.816 141.747 71.216 141.747 71.728C141.747 72.1973 141.907 72.5547 142.227 72.8C142.558 73.0347 142.984 73.152 143.507 73.152ZM157.769 65.792C158.569 65.792 159.198 66.032 159.657 66.512C160.126 66.992 160.361 67.648 160.361 68.48V73.84C160.361 73.9467 160.308 74 160.201 74H159.401C159.294 74 159.241 73.9467 159.241 73.84V68.704C159.241 68.1173 159.07 67.6533 158.729 67.312C158.398 66.96 157.961 66.784 157.417 66.784C156.852 66.784 156.393 66.9547 156.041 67.296C155.7 67.6373 155.529 68.096 155.529 68.672V73.84C155.529 73.9467 155.476 74 155.369 74H154.553C154.446 74 154.393 73.9467 154.393 73.84V68.704C154.393 68.1173 154.228 67.6533 153.897 67.312C153.566 66.96 153.124 66.784 152.569 66.784C152.004 66.784 151.55 66.9547 151.209 67.296C150.878 67.6373 150.713 68.096 150.713 68.672V73.84C150.713 73.9467 150.66 74 150.553 74H149.737C149.63 74 149.577 73.9467 149.577 73.84V66.064C149.577 65.9573 149.63 65.904 149.737 65.904H150.553C150.66 65.904 150.713 65.9573 150.713 66.064V66.704C150.713 66.7253 150.718 66.7413 150.729 66.752C150.75 66.752 150.772 66.7413 150.793 66.72C151.028 66.4107 151.326 66.1813 151.689 66.032C152.062 65.872 152.473 65.792 152.921 65.792C153.476 65.792 153.95 65.904 154.345 66.128C154.74 66.352 155.038 66.6773 155.241 67.104C155.262 67.1573 155.289 67.1573 155.321 67.104C155.556 66.6667 155.886 66.3413 156.313 66.128C156.74 65.904 157.225 65.792 157.769 65.792ZM169.16 68.592C169.203 68.8907 169.224 69.264 169.224 69.712V70.224C169.224 70.3307 169.171 70.384 169.064 70.384H163.896C163.853 70.384 163.832 70.4053 163.832 70.448C163.853 71.0347 163.885 71.4133 163.928 71.584C164.045 72.064 164.296 72.4427 164.68 72.72C165.064 72.9973 165.555 73.136 166.152 73.136C166.6 73.136 166.995 73.0347 167.336 72.832C167.677 72.6293 167.944 72.3413 168.136 71.968C168.2 71.872 168.275 71.8507 168.36 71.904L168.984 72.272C169.069 72.3253 169.091 72.4 169.048 72.496C168.781 73.008 168.381 73.4133 167.848 73.712C167.315 74 166.701 74.144 166.008 74.144C165.251 74.1333 164.616 73.952 164.104 73.6C163.592 73.248 163.224 72.7573 163 72.128C162.808 71.616 162.712 70.88 162.712 69.92C162.712 69.472 162.717 69.1093 162.728 68.832C162.749 68.544 162.792 68.288 162.856 68.064C163.037 67.3707 163.4 66.816 163.944 66.4C164.499 65.984 165.165 65.776 165.944 65.776C166.915 65.776 167.661 66.0213 168.184 66.512C168.707 67.0027 169.032 67.696 169.16 68.592ZM165.944 66.768C165.421 66.768 164.984 66.9067 164.632 67.184C164.291 67.4507 164.067 67.8133 163.96 68.272C163.896 68.496 163.853 68.8587 163.832 69.36C163.832 69.4027 163.853 69.424 163.896 69.424H168.04C168.083 69.424 168.104 69.4027 168.104 69.36C168.083 68.88 168.051 68.5387 168.008 68.336C167.891 67.856 167.651 67.4773 167.288 67.2C166.936 66.912 166.488 66.768 165.944 66.768Z" fill="currentColor"/>
</svg>
